<svg viewBox="433.1354 300.975 347.7251 88.0499" width="5000" height="1266.0849044259387" xmlns="http://www.w3.org/2000/svg" xmlns:xlink="http://www.w3.org/1999/xlink" preserveAspectRatio="none"><defs></defs><style>.aD6z1nYkhcolor {fill:#000000;fill-opacity:1;}.aMERc-z--Wcolor {fill:#000000;fill-opacity:1;}.atBXipXk0bfillColor {fill:#000000;fill-opacity:1;}.icon1 {fill:#000000;fill-opacity:1;}.icon2 {fill:#3F3F3F;fill-opacity:1;}.icon3 {fill:#797979;fill-opacity:1;}.shapeStroke-str {stroke:#3F3F3F;stroke-opacity:1;}</style><g opacity="1" transform="rotate(0 433.1354 300.975)">
<svg width="95.6411" height="88.0499" x="433.1354" y="300.975" version="1.1" preserveAspectRatio="none" viewBox="9.397998809814451 12.339999198913574 80.19300842285156 73.82799530029297">
  <g transform="matrix(1 0 0 1 0 0)" class="icon1"><g><path d="M55.894,49.046c0,0.515,0,1.027,0,1.992c0,2.509,1.142,3.675,3.328,3.675c0.708,0,2.05,0,2.757,0   c2.606,0,4.379,2.119,4.379,4.375c0,0.386,0,1.611,0,2.318c0,2.509-1.137,4.021-3.795,4.021c-0.451,0-2.682,0-3.196,0   c-2.796,0-4.253-1.278-4.253-3.889c0-0.386,0-1.515,0-2.158c0-2.059-1.479-3.41-3.281-3.41c-0.579,0-4.052,0-4.759,0   c-2.38,0-2.959,1.608-2.959,3.41c0,0.644,0,3.284,0,4.249c0,2.252,1.351,3.024,3.088,3.024c0.836,0,2.03,0,2.931,0   c3.31,0,4.9,1.452,4.9,3.77c0,0.772,0,0.379,0,1.601c0,2.634,1.498,3.632,3.881,3.632c1.865,0,4.272,0,4.915,0   c2.433,0,3.622-1.284,3.622-3.479c0-0.901,0-1.024,0-1.796c0-3.023,1.676-3.988,4.893-3.988c0.9,0,2.934,0,3.384,0   c1.866,0,2.725-1.158,2.725-2.702c0-1.543,0-4.181,0-6.24c0-2.058-1.158-3.023-3.409-3.023c-0.966,0-2.896,0-4.054,0   c-2.419,0-4.588-1.829-4.588-5.21c0-1.094,0-0.898,0-1.992c0-2.509-1.142-3.675-3.329-3.675c-0.708,0-2.049,0-2.757,0   c-2.606,0-4.379-2.118-4.379-4.374c0-0.386,0-1.611,0-2.318c0-2.509,1.138-4.021,3.796-4.021c0.45,0,2.681,0,3.195,0   c2.796,0,4.254,1.278,4.254,3.889c0,0.386,0,1.515,0,2.158c0,2.059,1.479,3.409,3.281,3.409c0.579,0,4.05,0,4.758,0   c2.38,0,2.959-1.608,2.959-3.409c0-0.644,0-3.284,0-4.249c0-2.251-1.351-3.023-3.088-3.023c-0.836,0-2.03,0-2.931,0   c-3.31,0-4.9-1.452-4.9-3.77c0-0.772,0-0.293,0-1.516c0-2.633-1.425-3.717-3.808-3.717c-1.865,0-4.345,0-4.988,0   c-2.433,0-3.622,1.284-3.622,3.48c0,0.9,0,1.023,0,1.795c0,3.023-1.676,3.988-4.893,3.988c-0.9,0-2.935,0-3.385,0   c-1.865,0-2.724,1.158-2.724,2.702s0,4.181,0,6.24s1.157,3.024,3.41,3.024c0.964,0,2.894,0,4.052,0   C53.725,43.836,55.894,45.665,55.894,49.046z"></path><path d="M86.07,54.482c1.945,0,3.521-1.577,3.521-3.521v-2.688c0-1.945-1.576-3.522-3.521-3.522h-2.688   c-1.944,0-3.521,1.577-3.521,3.522v2.688c0,1.945,1.577,3.521,3.521,3.521H86.07z"></path><path d="M36.547,31.871c1.158,0,2.042,0,3.008,0c2.251,0,3.409-0.965,3.409-3.023c0-0.569,0-1.649,0-1.974   c0.113-3.194,2.224-4.658,4.578-4.658c1.157,0,2.043,0,3.008,0c2.253,0,3.41-0.965,3.41-3.023s0-2.607,0-4.151   s-0.858-2.702-2.724-2.702c-0.45,0-4.795,0-5.695,0c-1.846,0-2.631,0.855-2.631,2.782c0,0.708,0,2.047,0,2.434   c0,2.195-1.681,4.253-4.171,4.364c-1.486,0-3.597,0-4.194,0c-1.845,0-2.631,0.855-2.631,2.782c0,0.708,0,2.123,0,2.508   c0,2.256-1.771,4.375-4.379,4.375c-0.707,0-2.049,0-2.757,0c-2.188,0-3.329,1.165-3.329,3.674c0,1.093,0,1.978,0,3.071   c0,3.381-2.168,5.21-4.588,5.21c-1.158,0-3.088,0-4.054,0c-2.251,0-3.409,0.965-3.409,3.023c0,0.267,0,6.5,0,6.766   c0,2.059,1.158,3.023,3.409,3.023c0.966,0,2.896,0,4.054,0c2.42,0,4.588,1.049,4.588,4.431c0,1.093,0,1.318,0,2.412   c0,2.509,1.142,3.674,3.329,3.674c0.708,0,2.05,0,2.757,0c2.607,0,4.379,2.119,4.379,4.375c0,0.386,0,1.831,0,2.539   c0,1.927,0.786,2.782,2.631,2.782c0.6,0,2.726,0,4.213,0l-0.021,0.024c2.491,0.11,4.171,2.169,4.171,4.364c0,0.386,0,1.726,0,2.433   c0,1.927,0.785,2.782,2.631,2.782c0.9,0,5.244,0,5.694,0c1.866,0,2.725-1.158,2.725-2.702s0-2.092,0-4.151   s-1.158-3.024-3.409-3.024c-0.965,0-1.851,0-3.009,0c-2.348,0-4.453-1.457-4.576-4.633c0-0.379,0-1.372,0-2.053   c0-2.059-1.158-3.023-3.409-3.023c-0.966,0-1.85,0-3.008,0c-2.421,0-4.59-1.828-4.59-5.209c0-0.515,0-0.667,0-1.633   c0-2.509,1.143-3.674,3.33-3.674c0.708,0,2.049,0,2.756,0c2.607,0,4.38-2.119,4.38-4.375c0-0.255,0-3.236,0-3.491   c0-2.256-1.772-4.375-4.38-4.375c-0.707,0-2.048,0-2.756,0c-2.188,0-3.33-1.166-3.33-3.674c0-0.965,0-2.845,0-3.36   C31.957,33.411,34.126,31.871,36.547,31.871z"></path></g></g>
</svg>
</g><g opacity="1" transform="rotate(0 568.0153 306.9748)">
<svg width="212.8452" height="53" x="568.0153" y="306.9748" version="1.1" preserveAspectRatio="none" viewBox="3.36 -31.96 129.7916 32.32">
  <g transform="matrix(1 0 0 1 0 0)" class="aD6z1nYkhcolor"><path d="M8.12-30.04L8.12-1.68Q8.12 0.24 5.72 0.24L5.72 0.24Q3.36 0.24 3.36-1.68L3.36-1.68L3.36-30.04Q3.36-31.96 5.72-31.96L5.72-31.96Q8.12-31.96 8.12-30.04L8.12-30.04Z M36.08-9.04L36.08-6.40Q36.08-3.16 33.92-1.56L33.92-1.56Q32.88-0.80 31.78-0.38Q30.68 0.04 29.64 0.04L29.64 0.04L20.92 0.04Q19.88 0.04 18.78-0.38Q17.68-0.80 16.64-1.56L16.64-1.56Q15.60-2.36 15.04-3.54Q14.48-4.72 14.48-6.40L14.48-6.40L14.48-25.40Q14.48-27 15.04-28.22Q15.60-29.44 16.64-30.20L16.64-30.20L16.60-30.20Q17.64-30.88 18.76-31.32Q19.88-31.76 20.92-31.76L20.92-31.76L29.64-31.76Q30.68-31.76 31.80-31.32Q32.92-30.88 33.96-30.20L33.96-30.20L33.92-30.20Q34.96-29.44 35.52-28.22Q36.08-27 36.08-25.40L36.08-25.40L36.08-22.64Q36.08-20.72 33.68-20.72L33.68-20.72Q31.32-20.72 31.32-22.64L31.32-22.64L31.32-25.04Q31.32-26.04 30.72-26.88Q30.12-27.72 28.64-27.72L28.64-27.72L21.92-27.72Q20.44-27.72 19.84-26.88Q19.24-26.04 19.24-25.04L19.24-25.04L19.24-6.72Q19.24-5.68 19.84-4.84Q20.44-4 21.92-4L21.92-4L28.64-4Q30.12-4 30.72-4.84Q31.32-5.68 31.32-6.72L31.32-6.72L31.32-9.04Q31.32-10.92 33.68-10.92L33.68-10.92Q36.08-10.92 36.08-9.04L36.08-9.04Z M48.28-31.76L57-31.76Q58.04-31.76 59.16-31.32Q60.28-30.88 61.32-30.20L61.32-30.20L61.28-30.20Q62.32-29.44 62.88-28.22Q63.44-27 63.44-25.40L63.44-25.40L63.44-6.40Q63.44-3.16 61.28-1.56L61.28-1.56Q60.24-0.80 59.14-0.38Q58.04 0.04 57 0.04L57 0.04L48.28 0.04Q47.24 0.04 46.14-0.38Q45.04-0.80 44-1.56L44-1.56Q42.96-2.36 42.40-3.54Q41.84-4.72 41.84-6.40L41.84-6.40L41.84-25.40Q41.84-27 42.40-28.22Q42.96-29.44 44-30.20L44-30.20L43.96-30.20Q45-30.88 46.12-31.32Q47.24-31.76 48.28-31.76L48.28-31.76ZM49.28-4L56-4Q57.48-4 58.08-4.84Q58.68-5.68 58.68-6.72L58.68-6.72L58.68-25.04Q58.68-26.04 58.08-26.88Q57.48-27.72 56-27.72L56-27.72L49.28-27.72Q47.80-27.72 47.20-26.88Q46.60-26.04 46.60-25.04L46.60-25.04L46.60-6.72Q46.60-5.68 47.20-4.84Q47.80-4 49.28-4L49.28-4Z M87.20-8.40L87.20-30.04Q87.20-31.96 89.56-31.96L89.56-31.96Q91.92-31.96 91.92-30.04L91.92-30.04L91.92-2.44Q91.92-1.04 90.44-0.40L90.44-0.40L90.48-0.40Q89.84-0.12 89.12 0.04Q88.40 0.20 87.72 0.20L87.72 0.20Q87.20 0.20 86.64 0.10Q86.08 0 85.58-0.22Q85.08-0.44 84.66-0.82Q84.24-1.20 84-1.76L84-1.76L75.32-23.40L74.24-23.28L74.24-1.68Q74.24 0.24 71.84 0.24L71.84 0.24Q69.48 0.24 69.48-1.68L69.48-1.68L69.48-29.24Q69.48-30.88 70.92-31.44L70.92-31.44Q72.24-31.96 73.72-31.96L73.72-31.96Q74.76-31.96 75.82-31.54Q76.88-31.12 77.44-29.96L77.44-29.96L86.08-8.28L87.20-8.40Z M102.80-30.04L102.80-1.68Q102.80 0.24 100.40 0.24L100.40 0.24Q98.04 0.24 98.04-1.68L98.04-1.68L98.04-30.04Q98.04-31.96 100.40-31.96L100.40-31.96Q102.80-31.96 102.80-30.04L102.80-30.04Z M128.52-0.96L119.72-27.84L110.96-0.96L110.96-1Q110.72-0.40 110.30-0.02Q109.88 0.36 109.28 0.36L109.28 0.36Q108.96 0.36 108.66 0.30Q108.36 0.24 108.04 0.16L108.04 0.16L108.08 0.16Q105.80-0.56 106.40-2.40L106.40-2.40L115.52-30.12Q115.72-30.76 116.22-31.20Q116.72-31.64 117.40-31.72L117.40-31.72Q118.08-31.84 118.72-31.90Q119.36-31.96 119.72-31.96L119.72-31.96Q120.08-31.96 120.72-31.90Q121.36-31.84 122.04-31.76L122.04-31.76Q122.60-31.68 123.14-31.16Q123.68-30.64 123.96-30.12L123.96-30.12Q126.20-23.24 128.50-16.26Q130.80-9.28 133.04-2.40L133.04-2.40Q133.60-0.56 131.36 0.16L131.36 0.16Q131.04 0.24 130.78 0.30Q130.52 0.36 130.20 0.36L130.20 0.36Q129.64 0.36 129.18-0.02Q128.72-0.40 128.52-1L128.52-1L128.52-0.96ZM122.72-9.60L122.72-9.60Q122.72-8.32 121.82-7.42Q120.92-6.52 119.64-6.52L119.64-6.52Q118.36-6.52 117.48-7.42Q116.60-8.32 116.60-9.60L116.60-9.60Q116.60-10.88 117.48-11.78Q118.36-12.68 119.64-12.68L119.64-12.68Q120.92-12.68 121.82-11.78Q122.72-10.88 122.72-9.60Z"/></g>
</svg>
</g><g opacity="1" transform="rotate(0 541.3076 301.9499)">
<svg width="3.3089" height="86.1" x="541.3076" y="301.9499" version="1.1" preserveAspectRatio="none" viewBox="0 0 3.3089 86.1">
  <rect x="0" y="0" width="3.3089" height="86.1" class="atBXipXk0bfillColor shapeStroke-str" style="stroke-width:0;" rx="0px" ry="0px" />
</svg>
</g><g opacity="1" transform="rotate(0 576.0944 373.0249)">
<svg width="196.687" height="16" x="576.0944" y="373.0249" version="1.1" preserveAspectRatio="none" viewBox="0.6 -32.36 466.64 37.96">
  <g transform="matrix(1 0 0 1 0 0)" class="aMERc-z--Wcolor"><path d="M13.88-27.72L13.88-1.60Q13.88 0.32 11.48 0.32L11.48 0.32Q9.12 0.32 9.12-1.60L9.12-1.60L9.12-27.72L2.12-27.72Q0.68-27.72 0.60-29.76L0.60-29.76Q0.60-31.76 2.12-31.76L2.12-31.76L20.88-31.76Q22.40-31.76 22.32-29.76L22.32-29.76Q22.32-27.72 20.88-27.72L20.88-27.72L13.88-27.72Z M29.92-20.32L29.92-1.68Q29.92 0.24 27.72 0.24L27.72 0.24Q25.52 0.24 25.52-1.68L25.52-1.68L25.52-30.08Q25.52-32 27.72-32L27.72-32Q29.92-32 29.92-30.08L29.92-30.08L29.92-24.08L38.36-24.08Q40.40-24.08 42.60-22.56L42.60-22.56Q44.76-21.04 44.76-17.76L44.76-17.76L44.76-1.68Q44.76 0.24 42.56 0.24L42.56 0.24Q40.36 0.24 40.36-1.68L40.36-1.68L40.36-17.40Q40.36-18.44 39.72-19.40L39.72-19.40L39.76-19.36Q39.24-20.32 37.64-20.32L37.64-20.32L29.92-20.32Z M54.44-17.72L54.44-6.40Q54.44-5.44 55.06-4.60Q55.68-3.76 57.16-3.76L57.16-3.76L62.16-3.76Q63.64-3.76 64.26-4.50Q64.88-5.24 64.88-6.20L64.88-6.20L64.88-6.64Q64.88-8.52 67.08-8.52L67.08-8.52Q69.28-8.52 69.28-6.64L69.28-6.64L69.28-6.16Q69.28-4.48 68.74-3.40Q68.20-2.32 67.12-1.52L67.12-1.52Q65 0 62.88 0L62.88 0L56.16 0Q54.04 0 52.04-1.52L52.04-1.52Q51.08-2.32 50.56-3.54Q50.04-4.76 50.04-6.36L50.04-6.36L50.04-17.76Q50.04-21 52.04-22.56L52.04-22.56Q53.04-23.28 54.10-23.70Q55.16-24.12 56.16-24.12L56.16-24.12L62.88-24.12Q63.84-24.12 65-23.74Q66.16-23.36 67.16-22.72L67.16-22.72Q68.12-22.04 68.70-20.84Q69.28-19.64 69.28-18L69.28-18L69.28-12.60Q69.28-11.68 68.74-10.96Q68.20-10.24 66.76-10.24L66.76-10.24L58.12-10.24Q56.68-10.24 56.60-12.12L56.60-12.12Q56.60-14 58.12-14L58.12-14L64.92-14L64.88-17.72Q64.88-18.72 64.26-19.54Q63.64-20.36 62.16-20.36L62.16-20.36L57.16-20.36Q55.68-20.36 55.06-19.54Q54.44-18.72 54.44-17.72L54.44-17.72Z M93.48-14L99.36-14Q100.36-14 101.50-13.54Q102.64-13.08 103.64-12.40L103.64-12.40L103.60-12.40Q104.64-11.64 105.20-10.44Q105.76-9.24 105.76-7.56L105.76-7.56L105.76-6.36Q105.76-3.08 103.60-1.52L103.60-1.52Q102.56-0.72 101.48-0.36Q100.40 0 99.36 0L99.36 0L92.56 0Q91.52 0 90.44-0.36Q89.36-0.72 88.32-1.52L88.32-1.52Q86.16-3.04 86.16-6.36L86.16-6.36L86.16-6.84Q86.16-8.56 88.36-8.52L88.36-8.52Q90.60-8.52 90.60-6.84L90.60-6.84L90.60-6.40Q90.60-5.44 91.20-4.60Q91.80-3.76 93.32-3.76L93.32-3.76L98.60-3.76Q100.12-3.76 100.72-4.60Q101.32-5.44 101.32-6.40L101.32-6.40L101.32-7.52Q101.32-8.04 101.18-8.52Q101.04-9 100.72-9.38Q100.40-9.76 99.88-10Q99.36-10.24 98.60-10.24L98.60-10.24L92.76-10.24Q90.72-10.24 88.48-11.68L88.48-11.68Q86.36-13.04 86.36-16.36L86.36-16.36L86.36-17.72Q86.36-19.32 86.92-20.54Q87.48-21.76 88.52-22.52L88.52-22.52L88.48-22.52Q89.48-23.20 90.60-23.64Q91.72-24.08 92.76-24.08L92.76-24.08L99.16-24.08Q100.20-24.08 101.30-23.64Q102.40-23.20 103.44-22.52L103.44-22.52L103.40-22.52Q104.44-21.76 105.00-20.54Q105.56-19.32 105.56-17.72L105.56-17.72L105.56-17.36Q105.56-16.52 105.00-16.14Q104.44-15.76 103.36-15.72L103.36-15.72Q101.16-15.68 101.16-17.36L101.16-17.36L101.16-17.68Q101.16-18.68 100.54-19.50Q99.92-20.32 98.44-20.32L98.44-20.32L93.48-20.32Q92.00-20.32 91.38-19.50Q90.76-18.68 90.76-17.68L90.76-17.68L90.76-16.72Q90.76-15.68 91.38-14.84Q92.00-14 93.48-14L93.48-14Z M119.52-20.32L116.20-20.32L116.20-5.76Q116.20-4.72 116.64-4.16Q117.08-3.60 118.52-3.60L118.52-3.60L119.56-3.60Q121.12-3.60 121.04-1.76L121.04-1.76Q121.04 0.12 119.56 0.12L119.56 0.12L118.24 0.12Q116.96 0.12 115.84-0.22Q114.72-0.56 113.68-1.20L113.68-1.20L113.68-1.16Q111.72-2.44 111.72-5.72L111.72-5.72L111.72-20.32L110.16-20.32Q108.72-20.32 108.64-22.20L108.64-22.20Q108.64-24.08 110.16-24.08L110.16-24.08L111.72-24.08L111.72-28.36Q111.72-30.28 114-30.28L114-30.28Q116.20-30.28 116.20-28.36L116.20-28.36L116.20-24.08L119.52-24.08Q121.08-24.08 121-22.20L121-22.20Q121-20.32 119.52-20.32L119.52-20.32Z M130.92-24.08L137.32-24.08Q138.36-24.08 139.46-23.64Q140.56-23.20 141.60-22.52L141.60-22.52L141.56-22.52Q142.60-21.76 143.16-20.54Q143.72-19.32 143.72-17.72L143.72-17.72L143.72-6.36Q143.72-3.08 141.56-1.52L141.56-1.52Q139.44 0 137.32 0L137.32 0L130.92 0Q129.88 0 128.80-0.36Q127.72-0.72 126.68-1.52L126.68-1.52Q124.52-3.04 124.52-6.36L124.52-6.36L124.52-17.72Q124.52-19.32 125.08-20.54Q125.64-21.76 126.68-22.52L126.68-22.52L126.64-22.52Q127.64-23.20 128.76-23.64Q129.88-24.08 130.92-24.08L130.92-24.08ZM131.64-3.76L136.60-3.76Q138.08-3.76 138.70-4.60Q139.32-5.44 139.32-6.40L139.32-6.40L139.32-17.68Q139.32-18.68 138.70-19.50Q138.08-20.32 136.60-20.32L136.60-20.32L131.64-20.32Q130.16-20.32 129.54-19.50Q128.92-18.68 128.92-17.68L128.92-17.68L128.92-6.40Q128.92-5.44 129.54-4.60Q130.16-3.76 131.64-3.76L131.64-3.76Z M153.08-18.20L153.08-1.68Q153.08 0.24 150.88 0.24L150.88 0.24Q148.60 0.24 148.60-1.68L148.60-1.68L148.60-18.24Q148.60-21.52 150.56-22.80L150.56-22.80Q152.52-24.08 155.08-24.08L155.08-24.08L159.64-24.08Q161.12-24.08 161.12-22.20L161.12-22.20Q161.20-20.32 159.64-20.32L159.64-20.32L155.40-20.32Q153.96-20.32 153.52-19.76Q153.08-19.20 153.08-18.20L153.08-18.20Z M167.88 5.60L165.80 5.60Q164.40 5.60 164.32 3.72L164.32 3.72Q164.32 1.84 165.80 1.84L165.80 1.84L167.56 1.84Q168.96 1.84 169.40 1L169.40 1L169.96-0.48L170.16-1.12L162.36-21.56L162.36-21.52Q162.04-22.48 162.50-23.16Q162.96-23.84 163.92-24.16L163.92-24.16Q164.64-24.36 165.08-24.36L165.08-24.36Q166.24-24.36 166.52-23L166.52-23L169.68-15.12L172.36-8.56L176.64-22.92Q177-24.36 178.32-24.36L178.32-24.36Q178.64-24.36 179.36-24.16L179.36-24.16Q180.32-23.88 180.74-23.24Q181.16-22.60 180.92-21.72L180.92-21.72Q179.12-15.60 177.26-9.40Q175.40-3.20 173.60 2.88L173.60 2.88Q173.40 3.32 172.98 3.78Q172.56 4.24 171.88 4.66Q171.20 5.08 170.20 5.34Q169.20 5.60 167.88 5.60L167.88 5.60Z M200.84-22.32L200.84-1.68Q200.84 0.24 198.64 0.24L198.64 0.24Q196.40 0.24 196.40-1.68L196.40-1.68L196.40-22.32Q196.40-24.24 198.64-24.24L198.64-24.24Q200.84-24.24 200.84-22.32L200.84-22.32ZM201.68-29.28L201.68-29.28Q201.68-28 200.80-27.12Q199.92-26.24 198.64-26.24L198.64-26.24Q197.36-26.24 196.46-27.12Q195.56-28 195.56-29.28L195.56-29.28Q195.56-30.60 196.46-31.48Q197.36-32.36 198.64-32.36L198.64-32.36Q199.92-32.36 200.80-31.48Q201.68-30.60 201.68-29.28Z M213.52-14L219.40-14Q220.40-14 221.54-13.54Q222.68-13.08 223.68-12.40L223.68-12.40L223.64-12.40Q224.68-11.64 225.24-10.44Q225.80-9.24 225.80-7.56L225.80-7.56L225.80-6.36Q225.80-3.08 223.64-1.52L223.64-1.52Q222.60-0.72 221.52-0.36Q220.44 0 219.40 0L219.40 0L212.60 0Q211.56 0 210.48-0.36Q209.40-0.72 208.36-1.52L208.36-1.52Q206.20-3.04 206.20-6.36L206.20-6.36L206.20-6.84Q206.20-8.56 208.40-8.52L208.40-8.52Q210.64-8.52 210.64-6.84L210.64-6.84L210.64-6.40Q210.64-5.44 211.24-4.60Q211.84-3.76 213.36-3.76L213.36-3.76L218.64-3.76Q220.16-3.76 220.76-4.60Q221.36-5.44 221.36-6.40L221.36-6.40L221.36-7.52Q221.36-8.04 221.22-8.52Q221.08-9 220.76-9.38Q220.44-9.76 219.92-10Q219.40-10.24 218.64-10.24L218.64-10.24L212.80-10.24Q210.76-10.24 208.52-11.68L208.52-11.68Q206.40-13.04 206.40-16.36L206.40-16.36L206.40-17.72Q206.40-19.32 206.96-20.54Q207.52-21.76 208.56-22.52L208.56-22.52L208.52-22.52Q209.52-23.20 210.64-23.64Q211.76-24.08 212.80-24.08L212.80-24.08L219.20-24.08Q220.24-24.08 221.34-23.64Q222.44-23.20 223.48-22.52L223.48-22.52L223.44-22.52Q224.48-21.76 225.04-20.54Q225.60-19.32 225.60-17.72L225.60-17.72L225.60-17.36Q225.60-16.52 225.04-16.14Q224.48-15.76 223.40-15.72L223.40-15.72Q221.20-15.68 221.20-17.36L221.20-17.36L221.20-17.68Q221.20-18.68 220.58-19.50Q219.96-20.32 218.48-20.32L218.48-20.32L213.52-20.32Q212.04-20.32 211.42-19.50Q210.80-18.68 210.80-17.68L210.80-17.68L210.80-16.72Q210.80-15.68 211.42-14.84Q212.04-14 213.52-14L213.52-14Z M247.52-22.32L247.52-1.68Q247.52 0.24 245.32 0.24L245.32 0.24Q243.08 0.24 243.08-1.68L243.08-1.68L243.08-22.32Q243.08-24.24 245.32-24.24L245.32-24.24Q247.52-24.24 247.52-22.32L247.52-22.32ZM248.36-29.28L248.36-29.28Q248.36-28 247.48-27.12Q246.60-26.24 245.32-26.24L245.32-26.24Q244.04-26.24 243.14-27.12Q242.24-28 242.24-29.28L242.24-29.28Q242.24-30.60 243.14-31.48Q244.04-32.36 245.32-32.36L245.32-32.36Q246.60-32.36 247.48-31.48Q248.36-30.60 248.36-29.28Z M257.48-17.40L257.48-1.68Q257.48 0.24 255.28 0.24L255.28 0.24Q253.08 0.24 253.08-1.68L253.08-1.68L253.08-17.76Q253.08-19.40 253.60-20.60Q254.12-21.80 255.24-22.56L255.24-22.56Q257.36-24.08 259.48-24.08L259.48-24.08L265.92-24.08Q267.96-24.08 270.16-22.56L270.16-22.56Q272.32-21.04 272.32-17.76L272.32-17.76L272.32-1.68Q272.32 0.24 270.12 0.24L270.12 0.24Q267.92 0.24 267.92-1.68L267.92-1.68L267.92-17.40Q267.92-18.44 267.28-19.40L267.28-19.40L267.32-19.36Q266.80-20.32 265.20-20.32L265.20-20.32L260.20-20.32Q258.56-20.32 258.04-19.36L258.04-19.36Q257.48-18.52 257.48-17.40L257.48-17.40Z M292.84 5.60L290.76 5.60Q289.36 5.60 289.28 3.72L289.28 3.72Q289.28 1.84 290.76 1.84L290.76 1.84L292.52 1.84Q293.92 1.84 294.36 1L294.36 1L294.92-0.48L295.12-1.12L287.32-21.56L287.32-21.52Q287.00-22.48 287.46-23.16Q287.92-23.84 288.88-24.16L288.88-24.16Q289.60-24.36 290.04-24.36L290.04-24.36Q291.20-24.36 291.48-23L291.48-23L294.64-15.12L297.32-8.56L301.60-22.92Q301.96-24.36 303.28-24.36L303.28-24.36Q303.60-24.36 304.32-24.16L304.32-24.16Q305.28-23.88 305.70-23.24Q306.12-22.60 305.88-21.72L305.88-21.72Q304.08-15.60 302.22-9.40Q300.36-3.20 298.56 2.88L298.56 2.88Q298.36 3.32 297.94 3.78Q297.52 4.24 296.84 4.66Q296.16 5.08 295.16 5.34Q294.16 5.60 292.84 5.60L292.84 5.60Z M315.68-24.08L322.08-24.08Q323.12-24.08 324.22-23.64Q325.32-23.20 326.36-22.52L326.36-22.52L326.32-22.52Q327.36-21.76 327.92-20.54Q328.48-19.32 328.48-17.72L328.48-17.72L328.48-6.36Q328.48-3.08 326.32-1.52L326.32-1.52Q324.20 0 322.08 0L322.08 0L315.68 0Q314.64 0 313.56-0.36Q312.48-0.72 311.44-1.52L311.44-1.52Q309.28-3.04 309.28-6.36L309.28-6.36L309.28-17.72Q309.28-19.32 309.84-20.54Q310.40-21.76 311.44-22.52L311.44-22.52L311.40-22.52Q312.40-23.20 313.52-23.64Q314.64-24.08 315.68-24.08L315.68-24.08ZM316.40-3.76L321.36-3.76Q322.84-3.76 323.46-4.60Q324.08-5.44 324.08-6.40L324.08-6.40L324.08-17.68Q324.08-18.68 323.46-19.50Q322.84-20.32 321.36-20.32L321.36-20.32L316.40-20.32Q314.92-20.32 314.30-19.50Q313.68-18.68 313.68-17.68L313.68-17.68L313.68-6.40Q313.68-5.44 314.30-4.60Q314.92-3.76 316.40-3.76L316.40-3.76Z M352.76-22.40L352.76-6.36Q352.76-4.76 352.20-3.52Q351.64-2.28 350.60-1.52L350.60-1.52L350.64-1.52Q349.64-0.84 348.52-0.42Q347.40 0 346.36 0L346.36 0L339.92 0Q338.92 0 337.78-0.42Q336.64-0.84 335.64-1.52L335.64-1.52L335.68-1.52Q334.64-2.28 334.08-3.52Q333.52-4.76 333.52-6.36L333.52-6.36L333.52-22.40Q333.52-24.32 335.72-24.32L335.72-24.32Q337.92-24.32 337.92-22.40L337.92-22.40L337.92-6.68Q337.92-5.56 338.48-4.72L338.48-4.72Q339.00-3.76 340.64-3.76L340.64-3.76L345.64-3.76Q347.24-3.76 347.76-4.72L347.76-4.72L347.72-4.68Q348.36-5.64 348.36-6.68L348.36-6.68L348.36-22.40Q348.36-24.32 350.56-24.32L350.56-24.32Q352.76-24.32 352.76-22.40L352.76-22.40Z M362.08-18.20L362.08-1.68Q362.08 0.24 359.88 0.24L359.88 0.24Q357.60 0.24 357.60-1.68L357.60-1.68L357.60-18.24Q357.60-21.52 359.56-22.80L359.56-22.80Q361.52-24.08 364.08-24.08L364.08-24.08L368.64-24.08Q370.12-24.08 370.12-22.20L370.12-22.20Q370.20-20.32 368.64-20.32L368.64-20.32L364.40-20.32Q362.96-20.32 362.52-19.76Q362.08-19.20 362.08-18.20L362.08-18.20Z M400.36-1.40L400.36-20.32L392.64-20.32Q391.00-20.32 390.48-19.36L390.48-19.36Q389.92-18.52 389.92-17.40L389.92-17.40L389.92-5.88Q389.92-4.84 390.56-4.30Q391.20-3.76 392.68-3.76L392.68-3.76L396.80-3.76Q398.24-3.76 398.24-1.88L398.24-1.88Q398.24-1.08 397.90-0.54Q397.56 0 396.80 0L396.80 0L391.96 0Q389.44 0 387.48-1.28L387.48-1.28Q385.52-2.48 385.52-5.84L385.52-5.84L385.52-17.76Q385.52-19.40 386.04-20.60Q386.56-21.80 387.68-22.56L387.68-22.56Q389.80-24.08 391.92-24.08L391.92-24.08L400.36-24.08L400.36-30.08Q400.36-32 402.56-32L402.56-32Q404.76-32 404.76-30.08L404.76-30.08L404.76-1.68Q404.76 0.24 402.56 0.24L402.56 0.24Q401.72 0.24 401.04-0.06Q400.36-0.36 400.36-1.40L400.36-1.40Z M421.32 0L416.08 0Q414.84 0 413.72-0.34Q412.60-0.68 411.56-1.32L411.56-1.32L411.56-1.28Q409.60-2.52 409.60-5.84L409.60-5.84L409.60-7.80Q409.60-9.44 410.18-10.66Q410.76-11.88 411.80-12.60L411.80-12.60L411.76-12.60Q412.76-13.28 413.88-13.62Q415.00-13.96 416.04-13.96L416.04-13.96L424.88-13.96L424.88-17.68Q424.88-18.68 424.26-19.50Q423.64-20.32 422.16-20.32L422.16-20.32L417.48-20.32Q415.96-20.32 415.38-19.58Q414.80-18.84 414.80-17.84L414.80-17.84L414.80-17.52Q414.80-15.44 412.56-15.44L412.56-15.44Q410.32-15.44 410.32-17.52L410.32-17.52L410.32-17.88Q410.32-19.52 410.90-20.64Q411.48-21.76 412.48-22.52L412.48-22.52L412.44-22.52Q413.48-23.20 414.62-23.64Q415.76-24.08 416.80-24.08L416.80-24.08L422.88-24.08Q423.88-24.08 425.02-23.64Q426.16-23.20 427.16-22.52L427.16-22.52L427.12-22.52Q428.16-21.76 428.72-20.54Q429.28-19.32 429.28-17.72L429.28-17.72L429.28-1.68Q429.28 0.24 427.08 0.24L427.08 0.24Q426.64 0.24 426.26 0.20Q425.88 0.16 425.58-0.02Q425.28-0.20 425.10-0.54Q424.92-0.88 424.92-1.44L424.92-1.44L424.88-10.20L416.80-10.20Q415.92-10.20 415.44-10Q414.96-9.80 414.68-9.36L414.68-9.36Q414.36-8.68 414.22-8.30Q414.08-7.92 414.08-7.44L414.08-7.44L414.08-5.88Q414.08-4.84 414.70-4.30Q415.32-3.76 416.84-3.76L416.84-3.76L421.32-3.76Q422.80-3.76 422.80-1.88L422.80-1.88Q422.80-1.08 422.44-0.54Q422.08 0 421.32 0L421.32 0Z M443-20.32L439.68-20.32L439.68-5.76Q439.68-4.72 440.12-4.16Q440.56-3.60 442-3.60L442-3.60L443.04-3.60Q444.60-3.60 444.52-1.76L444.52-1.76Q444.52 0.12 443.04 0.12L443.04 0.12L441.72 0.12Q440.44 0.12 439.32-0.22Q438.20-0.56 437.16-1.20L437.16-1.20L437.16-1.16Q435.20-2.44 435.20-5.72L435.20-5.72L435.20-20.32L433.64-20.32Q432.20-20.32 432.12-22.20L432.12-22.20Q432.12-24.08 433.64-24.08L433.64-24.08L435.20-24.08L435.20-28.36Q435.20-30.28 437.48-30.28L437.48-30.28Q439.68-30.28 439.68-28.36L439.68-28.36L439.68-24.08L443-24.08Q444.56-24.08 444.48-22.20L444.48-22.20Q444.48-20.32 443-20.32L443-20.32Z M459.28 0L454.04 0Q452.80 0 451.68-0.34Q450.56-0.68 449.52-1.32L449.52-1.32L449.52-1.28Q447.56-2.52 447.56-5.84L447.56-5.84L447.56-7.80Q447.56-9.44 448.14-10.66Q448.72-11.88 449.76-12.60L449.76-12.60L449.72-12.60Q450.72-13.28 451.84-13.62Q452.96-13.96 454-13.96L454-13.96L462.84-13.96L462.84-17.68Q462.84-18.68 462.22-19.50Q461.60-20.32 460.12-20.32L460.12-20.32L455.44-20.32Q453.92-20.32 453.34-19.58Q452.76-18.84 452.76-17.84L452.76-17.84L452.76-17.52Q452.76-15.44 450.52-15.44L450.52-15.44Q448.28-15.44 448.28-17.52L448.28-17.52L448.28-17.88Q448.28-19.52 448.86-20.64Q449.44-21.76 450.44-22.52L450.44-22.52L450.40-22.52Q451.44-23.20 452.58-23.64Q453.72-24.08 454.76-24.08L454.76-24.08L460.84-24.08Q461.84-24.08 462.98-23.64Q464.12-23.20 465.12-22.52L465.12-22.52L465.08-22.52Q466.12-21.76 466.68-20.54Q467.24-19.32 467.24-17.72L467.24-17.72L467.24-1.68Q467.24 0.24 465.04 0.24L465.04 0.24Q464.60 0.24 464.22 0.20Q463.84 0.16 463.54-0.02Q463.24-0.20 463.06-0.54Q462.88-0.88 462.88-1.44L462.88-1.44L462.84-10.20L454.76-10.20Q453.88-10.20 453.40-10Q452.92-9.80 452.64-9.36L452.64-9.36Q452.32-8.68 452.18-8.30Q452.04-7.92 452.04-7.44L452.04-7.44L452.04-5.88Q452.04-4.84 452.66-4.30Q453.28-3.76 454.80-3.76L454.80-3.76L459.28-3.76Q460.76-3.76 460.76-1.88L460.76-1.88Q460.76-1.08 460.40-0.54Q460.04 0 459.28 0L459.28 0Z"/></g>
</svg>
</g></svg>